# xmcd
#
# Track frame offsets:
#	150
#	11999
#	24104
#	43806
#	52205
#	66198
#	78167
#	90607
#	98326
#	109705
#	127259
#	136372
#	148380
#
# Disc length: 2154 seconds
#
# Revision: 1
# Processed by: cddbd v1.5.2PL0 Copyright (c) Steve Scherf et al.
# Submitted via: audiograbber 1.83.01
#
DISCID=b508680d
DTITLE=The Buckhorn Mountain boys - Take The Backroad Home
DYEAR=2003
DGENRE=Bluegrass
TTITLE0=Blueridge Mountain Home
TTITLE1=High on a Mountain Top
TTITLE2=Last Train from Poor Valley
TTITLE3=Maggie
TTITLE4=Midnight on the Highway
TTITLE5=A Memory of You
TTITLE6=Idaho Cowboy
TTITLE7=Y2K
TTITLE8=Stone Walls and Steel Bars
TTITLE9=Blow Wyoming Blow
TTITLE10=Sweet Little Miss Blue Eyes
TTITLE11=Is It True What They Say About Dixie
TTITLE12=I´m On My Way Back to the Old Home
EXTD=
EXTT0=
EXTT1=
EXTT2=
EXTT3=
EXTT4=
EXTT5=
EXTT6=
EXTT7=
EXTT8=
EXTT9=
EXTT10=
EXTT11=
EXTT12=
PLAYORDER=
